<mxfile host="65bd71144e">
    <diagram id="ull73dYdModQ1DHthHD1" name="Register">
        <mxGraphModel dx="797" dy="571" grid="1" gridSize="10" guides="1" tooltips="1" connect="1" arrows="1" fold="1" page="1" pageScale="1" pageWidth="850" pageHeight="1100" math="0" shadow="0">
            <root>
                <mxCell id="0"/>
                <mxCell id="1" parent="0"/>
                <mxCell id="2" value="" style="rounded=0;whiteSpace=wrap;html=1;labelBorderColor=default;" parent="1" vertex="1">
                    <mxGeometry x="80" y="40" width="680" height="600" as="geometry"/>
                </mxCell>
                <mxCell id="3" value="Email" style="whiteSpace=wrap;html=1;" parent="1" vertex="1">
                    <mxGeometry x="375" y="360" width="120" height="40" as="geometry"/>
                </mxCell>
                <mxCell id="4" value="Username" style="whiteSpace=wrap;html=1;" parent="1" vertex="1">
                    <mxGeometry x="375" y="300" width="120" height="40" as="geometry"/>
                </mxCell>
                <mxCell id="6" value="Password" style="whiteSpace=wrap;html=1;" parent="1" vertex="1">
                    <mxGeometry x="375" y="420" width="120" height="40" as="geometry"/>
                </mxCell>
                <mxCell id="8" value="Register" style="whiteSpace=wrap;html=1;fillColor=#1BA1E2;fontColor=#ffffff;strokeColor=#006EAF;" parent="1" vertex="1">
                    <mxGeometry x="380" y="490" width="110" height="30" as="geometry"/>
                </mxCell>
                <mxCell id="10" value="&lt;b style=&quot;&quot;&gt;&lt;font style=&quot;font-size: 16px;&quot;&gt;Bon Appétit Register&lt;/font&gt;&lt;br&gt;&lt;/b&gt;" style="text;html=1;strokeColor=none;fillColor=none;align=center;verticalAlign=middle;whiteSpace=wrap;rounded=0;" parent="1" vertex="1">
                    <mxGeometry x="315" y="120" width="210" height="60" as="geometry"/>
                </mxCell>
                <mxCell id="11" value="Full Name" style="whiteSpace=wrap;html=1;" parent="1" vertex="1">
                    <mxGeometry x="375" y="240" width="120" height="40" as="geometry"/>
                </mxCell>
                <mxCell id="19" value="Already have an account? &lt;u&gt;Login&lt;/u&gt;" style="text;html=1;strokeColor=none;fillColor=none;align=center;verticalAlign=middle;whiteSpace=wrap;rounded=0;" parent="1" vertex="1">
                    <mxGeometry x="340" y="535" width="200" height="30" as="geometry"/>
                </mxCell>
                <mxCell id="20" value="&lt;span style=&quot;font-size: 12px;&quot;&gt;Doesn't have an account? Create an account and start your Recipe Road&lt;/span&gt;" style="text;html=1;align=center;verticalAlign=middle;rounded=0;fontSize=14;whiteSpace=wrap;fontColor=#6A78F7;" parent="1" vertex="1">
                    <mxGeometry x="295" y="190" width="250" height="30" as="geometry"/>
                </mxCell>
                <mxCell id="21" value="" style="rounded=0;whiteSpace=wrap;html=1;fontSize=16;fontColor=#6A78F7;fillColor=none;" parent="1" vertex="1">
                    <mxGeometry x="250" y="120" width="330" height="470" as="geometry"/>
                </mxCell>
                <mxCell id="22" value="" style="rounded=0;whiteSpace=wrap;html=1;fontSize=16;fontColor=#6A78F7;fillColor=none;" parent="1" vertex="1">
                    <mxGeometry x="80" y="40" width="680" height="50" as="geometry"/>
                </mxCell>
                <mxCell id="23" value="&lt;a style=&quot;box-sizing: border-box; color: var(--bs-navbar-brand-color); text-decoration-line: none; padding-top: var(--bs-navbar-brand-padding-y); padding-bottom: var(--bs-navbar-brand-padding-y); margin-right: var(--bs-navbar-brand-margin-end); font-size: 30px; font-weight: 800; background: linear-gradient(to right, rgb(225, 142, 161), rgb(150, 22, 0)) text rgb(33, 37, 41); -webkit-text-fill-color: transparent; font-family: system-ui, -apple-system, &amp;quot;Segoe UI&amp;quot;, Roboto, &amp;quot;Helvetica Neue&amp;quot;, &amp;quot;Noto Sans&amp;quot;, &amp;quot;Liberation Sans&amp;quot;, Arial, sans-serif, &amp;quot;Apple Color Emoji&amp;quot;, &amp;quot;Segoe UI Emoji&amp;quot;, &amp;quot;Segoe UI Symbol&amp;quot;, &amp;quot;Noto Color Emoji&amp;quot;; text-align: start;&quot; href=&quot;http://localhost/AI_PHP_Recipe_Tracker_new/index.php&quot; class=&quot;navbar-brand&quot;&gt;Bon Appétit&lt;/a&gt;" style="text;html=1;strokeColor=none;fillColor=none;align=center;verticalAlign=middle;whiteSpace=wrap;rounded=0;fontSize=16;fontColor=#6A78F7;" parent="1" vertex="1">
                    <mxGeometry x="90" y="50" width="190" height="30" as="geometry"/>
                </mxCell>
                <mxCell id="24" value="&lt;font style=&quot;font-size: 12px;&quot; color=&quot;#ffffff&quot;&gt;Home&lt;/font&gt;" style="text;html=1;strokeColor=none;fillColor=none;align=center;verticalAlign=middle;whiteSpace=wrap;rounded=0;fontSize=16;fontColor=#6A78F7;" parent="1" vertex="1">
                    <mxGeometry x="280" y="50" width="60" height="30" as="geometry"/>
                </mxCell>
                <mxCell id="25" value="Register" style="rounded=1;whiteSpace=wrap;html=1;fontSize=12;fontColor=#FFFFFF;fillColor=#c03321;labelBackgroundColor=#9f2323;" parent="1" vertex="1">
                    <mxGeometry x="600" y="55" width="60" height="20" as="geometry"/>
                </mxCell>
                <mxCell id="26" value="&lt;span style=&quot;background-color: rgb(13, 12, 12);&quot;&gt;&lt;font color=&quot;#e32b2b&quot;&gt;Login&lt;/font&gt;&lt;/span&gt;" style="rounded=1;whiteSpace=wrap;html=1;fontSize=12;fontColor=#FFFFFF;fillColor=none;labelBorderColor=#121111;strokeColor=#d12929;" parent="1" vertex="1">
                    <mxGeometry x="680" y="55" width="60" height="20" as="geometry"/>
                </mxCell>
            </root>
        </mxGraphModel>
    </diagram>
    <diagram id="YZi8B-rOrsxMGnMr_R8s" name="Login In">
        <mxGraphModel dx="797" dy="571" grid="1" gridSize="10" guides="1" tooltips="1" connect="1" arrows="1" fold="1" page="1" pageScale="1" pageWidth="850" pageHeight="1100" math="0" shadow="0">
            <root>
                <mxCell id="0"/>
                <mxCell id="1" parent="0"/>
                <mxCell id="vv_v4OVlIYrN8DpwMxEC-1" value="" style="rounded=0;whiteSpace=wrap;html=1;labelBorderColor=default;fillColor=#18141D;" parent="1" vertex="1">
                    <mxGeometry x="80" y="40" width="680" height="600" as="geometry"/>
                </mxCell>
                <mxCell id="fT4Y41YeMwOd4tUmyCdT-2" value="" style="rounded=0;whiteSpace=wrap;html=1;labelBackgroundColor=#2E2D2D;labelBorderColor=default;strokeColor=#ffffff;fontSize=12;fontColor=#333333;fillColor=#18141D;" parent="1" vertex="1">
                    <mxGeometry x="80" y="40" width="680" height="60" as="geometry"/>
                </mxCell>
                <mxCell id="yVhssWhgvePyWx_R63cb-1" value="&lt;a style=&quot;color: var(--bs-navbar-brand-color); box-sizing: border-box; text-decoration-line: none; padding-top: var(--bs-navbar-brand-padding-y); padding-bottom: var(--bs-navbar-brand-padding-y); margin-right: var(--bs-navbar-brand-margin-end); font-size: 30px; font-weight: 800; background-image: linear-gradient(to right, rgb(225, 142, 161), rgb(150, 22, 0)); background-position: initial; background-size: initial; background-repeat: initial; background-attachment: initial; background-origin: initial; background-clip: text; -webkit-text-fill-color: transparent; font-family: system-ui, -apple-system, &amp;quot;Segoe UI&amp;quot;, Roboto, &amp;quot;Helvetica Neue&amp;quot;, &amp;quot;Noto Sans&amp;quot;, &amp;quot;Liberation Sans&amp;quot;, Arial, sans-serif, &amp;quot;Apple Color Emoji&amp;quot;, &amp;quot;Segoe UI Emoji&amp;quot;, &amp;quot;Segoe UI Symbol&amp;quot;, &amp;quot;Noto Color Emoji&amp;quot;; text-align: start;&quot; href=&quot;http://localhost/AI_PHP_Recipe_Tracker_new/index.php&quot; class=&quot;navbar-brand&quot;&gt;Bon Appétit&lt;/a&gt;" style="text;html=1;strokeColor=none;fillColor=none;align=center;verticalAlign=middle;whiteSpace=wrap;rounded=0;labelBackgroundColor=#18141D;labelBorderColor=default;fontSize=12;fontColor=#333333;" parent="1" vertex="1">
                    <mxGeometry x="90" y="55" width="190" height="30" as="geometry"/>
                </mxCell>
                <mxCell id="faAFOPSufYeXk0VUD6X_-1" value="&lt;font style=&quot;font-size: 12px;&quot; color=&quot;#ffffff&quot;&gt;Home&lt;/font&gt;" style="text;html=1;strokeColor=none;fillColor=none;align=center;verticalAlign=middle;whiteSpace=wrap;rounded=0;fontSize=16;fontColor=#6A78F7;" parent="1" vertex="1">
                    <mxGeometry x="280" y="55" width="60" height="30" as="geometry"/>
                </mxCell>
                <mxCell id="yc39_eESK-VXsapio_iR-1" value="&lt;font color=&quot;#e51f1f&quot;&gt;Register&lt;/font&gt;" style="rounded=1;whiteSpace=wrap;html=1;fontSize=12;fontColor=#FFFFFF;fillColor=#18141D;labelBackgroundColor=#18141D;strokeColor=#e01f1f;" parent="1" vertex="1">
                    <mxGeometry x="600" y="55" width="60" height="20" as="geometry"/>
                </mxCell>
                <mxCell id="RfONiH2gZ5DMqUvm0FTw-1" value="&lt;font color=&quot;#fefbfb&quot; style=&quot;background-color: rgb(204, 0, 0);&quot;&gt;Login&lt;/font&gt;" style="rounded=1;whiteSpace=wrap;html=1;fontSize=12;fontColor=#FFFFFF;fillColor=#CC0000;labelBorderColor=#FF0000;strokeColor=#ffffff;" parent="1" vertex="1">
                    <mxGeometry x="680" y="55" width="60" height="20" as="geometry"/>
                </mxCell>
                <mxCell id="ePBCu3u1Gtl6EfctAr1B-1" value="" style="rounded=0;whiteSpace=wrap;html=1;fontSize=16;fontColor=#6A78F7;fillColor=none;" parent="1" vertex="1">
                    <mxGeometry x="260" y="200" width="330" height="300" as="geometry"/>
                </mxCell>
                <mxCell id="ZPq4nRWxlh8M-v-hddxu-1" value="&lt;b style=&quot;&quot;&gt;&lt;font style=&quot;font-size: 16px;&quot;&gt;Bon Appétit Sign In&lt;/font&gt;&lt;br&gt;&lt;/b&gt;" style="text;html=1;strokeColor=none;fillColor=none;align=center;verticalAlign=middle;whiteSpace=wrap;rounded=0;" parent="1" vertex="1">
                    <mxGeometry x="320" y="210" width="210" height="60" as="geometry"/>
                </mxCell>
                <mxCell id="yzKbIx9sW-nGIwTF62gM-1" value="&lt;span style=&quot;background-color: rgb(24, 20, 29);&quot;&gt;&lt;span style=&quot;color: rgb(240, 240, 240); font-family: Helvetica; font-size: 12px; font-style: normal; font-variant-ligatures: normal; font-variant-caps: normal; font-weight: 400; letter-spacing: normal; orphans: 2; text-align: center; text-indent: 0px; text-transform: none; widows: 2; word-spacing: 0px; -webkit-text-stroke-width: 0px; text-decoration-thickness: initial; text-decoration-style: initial; text-decoration-color: initial; float: none; display: inline !important;&quot;&gt;Doesn't have an account yet?&amp;nbsp;&lt;/span&gt;&lt;u style=&quot;border-color: rgb(0, 0, 0); color: rgb(240, 240, 240); font-family: Helvetica; font-size: 12px; font-style: normal; font-variant-ligatures: normal; font-variant-caps: normal; font-weight: 400; letter-spacing: normal; orphans: 2; text-align: center; text-indent: 0px; text-transform: none; widows: 2; word-spacing: 0px; -webkit-text-stroke-width: 0px;&quot;&gt;Sign Up&amp;nbsp;&lt;/u&gt;&lt;/span&gt;" style="text;whiteSpace=wrap;html=1;fontSize=12;fontColor=#fefbfb;" parent="1" vertex="1">
                    <mxGeometry x="320" y="450" width="240" height="40" as="geometry"/>
                </mxCell>
                <mxCell id="xHxeWxLFgoziiFhLM_rh-1" value="Sign In" style="whiteSpace=wrap;html=1;fillColor=#1BA1E2;fontColor=#ffffff;strokeColor=#006EAF;" parent="1" vertex="1">
                    <mxGeometry x="370" y="400" width="110" height="30" as="geometry"/>
                </mxCell>
                <mxCell id="w-6soYA_gIo1hQwLlO1v-1" value="Email Address" style="whiteSpace=wrap;html=1;" parent="1" vertex="1">
                    <mxGeometry x="365" y="280" width="120" height="40" as="geometry"/>
                </mxCell>
                <mxCell id="LC1sQ7Yvl04m77jSdqdT-1" value="Password" style="whiteSpace=wrap;html=1;" parent="1" vertex="1">
                    <mxGeometry x="365" y="340" width="120" height="40" as="geometry"/>
                </mxCell>
            </root>
        </mxGraphModel>
    </diagram>
    <diagram id="OUfroCCKI1Ozc89z2Ifv" name="Home">
        <mxGraphModel dx="797" dy="571" grid="1" gridSize="10" guides="1" tooltips="1" connect="1" arrows="1" fold="1" page="1" pageScale="1" pageWidth="850" pageHeight="1100" math="0" shadow="0">
            <root>
                <mxCell id="0"/>
                <mxCell id="1" parent="0"/>
                <mxCell id="nPF0GAn3tdE764NwykhP-1" value="" style="rounded=0;whiteSpace=wrap;html=1;labelBorderColor=default;fillColor=#18141D;" vertex="1" parent="1">
                    <mxGeometry x="80" y="40" width="680" height="760" as="geometry"/>
                </mxCell>
                <mxCell id="n9sgadZ3mfvWBqlsA422-1" value="&lt;span style=&quot;color: rgba(0, 0, 0, 0); font-family: monospace; font-size: 0px; text-align: start;&quot;&gt;%3CmxGraphModel%3E%3Croot%3E%3CmxCell%20id%3D%220%22%2F%3E%3CmxCell%20id%3D%221%22%20parent%3D%220%22%2F%3E%3CmxCell%20id%3D%222%22%20value%3D%22%26lt%3Ba%20style%3D%26quot%3Bcolor%3A%20var(--bs-navbar-brand-color)%3B%20box-sizing%3A%20border-box%3B%20text-decoration-line%3A%20none%3B%20padding-top%3A%20var(--bs-navbar-brand-padding-y)%3B%20padding-bottom%3A%20var(--bs-navbar-brand-padding-y)%3B%20margin-right%3A%20var(--bs-navbar-brand-margin-end)%3B%20font-size%3A%2030px%3B%20font-weight%3A%20800%3B%20background-image%3A%20linear-gradient(to%20right%2C%20rgb(225%2C%20142%2C%20161)%2C%20rgb(150%2C%2022%2C%200))%3B%20background-position%3A%20initial%3B%20background-size%3A%20initial%3B%20background-repeat%3A%20initial%3B%20background-attachment%3A%20initial%3B%20background-origin%3A%20initial%3B%20background-clip%3A%20text%3B%20-webkit-text-fill-color%3A%20transparent%3B%20font-family%3A%20system-ui%2C%20-apple-system%2C%20%26amp%3Bquot%3BSegoe%20UI%26amp%3Bquot%3B%2C%20Roboto%2C%20%26amp%3Bquot%3BHelvetica%20Neue%26amp%3Bquot%3B%2C%20%26amp%3Bquot%3BNoto%20Sans%26amp%3Bquot%3B%2C%20%26amp%3Bquot%3BLiberation%20Sans%26amp%3Bquot%3B%2C%20Arial%2C%20sans-serif%2C%20%26amp%3Bquot%3BApple%20Color%20Emoji%26amp%3Bquot%3B%2C%20%26amp%3Bquot%3BSegoe%20UI%20Emoji%26amp%3Bquot%3B%2C%20%26amp%3Bquot%3BSegoe%20UI%20Symbol%26amp%3Bquot%3B%2C%20%26amp%3Bquot%3BNoto%20Color%20Emoji%26amp%3Bquot%3B%3B%20text-align%3A%20start%3B%26quot%3B%20href%3D%26quot%3Bhttp%3A%2F%2Flocalhost%2FAI_PHP_Recipe_Tracker_new%2Findex.php%26quot%3B%20class%3D%26quot%3Bnavbar-brand%26quot%3B%26gt%3BBon%20App%C3%A9tit%26lt%3B%2Fa%26gt%3B%22%20style%3D%22text%3Bhtml%3D1%3BstrokeColor%3Dnone%3BfillColor%3Dnone%3Balign%3Dcenter%3BverticalAlign%3Dmiddle%3BwhiteSpace%3Dwrap%3Brounded%3D0%3BlabelBackgroundColor%3D%2318141D%3BlabelBorderColor%3Ddefault%3BfontSize%3D12%3BfontColor%3D%23333333%3B%22%20vertex%3D%221%22%20parent%3D%221%22%3E%3CmxGeometry%20x%3D%2290%22%20y%3D%2255%22%20width%3D%22190%22%20height%3D%2230%22%20as%3D%22geometry%22%2F%3E%3C%2FmxCell%3E%3C%2Froot%3E%3C%2FmxGraphModel%3E&lt;/span&gt;" style="rounded=0;whiteSpace=wrap;html=1;" vertex="1" parent="1">
                    <mxGeometry x="80" y="40" width="680" height="60" as="geometry"/>
                </mxCell>
                <mxCell id="n9sgadZ3mfvWBqlsA422-2" value="&lt;a class=&quot;navbar-brand&quot; href=&quot;http://localhost/AI_PHP_Recipe_Tracker_new/index.php&quot; style=&quot;color: var(--bs-navbar-brand-color); box-sizing: border-box; text-decoration-line: none; padding-top: var(--bs-navbar-brand-padding-y); padding-bottom: var(--bs-navbar-brand-padding-y); margin-right: var(--bs-navbar-brand-margin-end); font-size: 30px; font-weight: 800; background-image: linear-gradient(to right, rgb(225, 142, 161), rgb(150, 22, 0)); background-position: initial; background-size: initial; background-repeat: initial; background-attachment: initial; background-origin: initial; background-clip: text; -webkit-text-fill-color: transparent; font-family: system-ui, -apple-system, &amp;quot;Segoe UI&amp;quot;, Roboto, &amp;quot;Helvetica Neue&amp;quot;, &amp;quot;Noto Sans&amp;quot;, &amp;quot;Liberation Sans&amp;quot;, Arial, sans-serif, &amp;quot;Apple Color Emoji&amp;quot;, &amp;quot;Segoe UI Emoji&amp;quot;, &amp;quot;Segoe UI Symbol&amp;quot;, &amp;quot;Noto Color Emoji&amp;quot;; text-align: start;&quot;&gt;Bon Appétit&lt;/a&gt;" style="text;html=1;strokeColor=none;fillColor=none;align=center;verticalAlign=middle;whiteSpace=wrap;rounded=0;labelBackgroundColor=#18141D;labelBorderColor=default;fontSize=12;fontColor=#333333;" vertex="1" parent="1">
                    <mxGeometry x="90" y="55" width="190" height="30" as="geometry"/>
                </mxCell>
                <mxCell id="cKhhVtKmHP3Dxx20QW97-1" value="&lt;font color=&quot;#e51f1f&quot;&gt;Register&lt;/font&gt;" style="rounded=1;whiteSpace=wrap;html=1;fontSize=12;fontColor=#FFFFFF;fillColor=#18141D;labelBackgroundColor=#18141D;strokeColor=#e01f1f;" vertex="1" parent="1">
                    <mxGeometry x="600" y="55" width="60" height="20" as="geometry"/>
                </mxCell>
                <mxCell id="cKhhVtKmHP3Dxx20QW97-2" value="&lt;font color=&quot;#e51f1f&quot;&gt;Login&lt;/font&gt;" style="rounded=1;whiteSpace=wrap;html=1;fontSize=12;fontColor=#FFFFFF;fillColor=#18141D;labelBackgroundColor=#18141D;strokeColor=#e01f1f;" vertex="1" parent="1">
                    <mxGeometry x="680" y="55" width="60" height="20" as="geometry"/>
                </mxCell>
                <mxCell id="cKhhVtKmHP3Dxx20QW97-3" value="" style="rounded=0;whiteSpace=wrap;html=1;" vertex="1" parent="1">
                    <mxGeometry x="80" y="140" width="680" height="220" as="geometry"/>
                </mxCell>
                <mxCell id="cKhhVtKmHP3Dxx20QW97-4" value="&lt;font color=&quot;#e51f1f&quot;&gt;Create an account&lt;/font&gt;" style="rounded=1;whiteSpace=wrap;html=1;fontSize=12;fontColor=#FFFFFF;fillColor=#18141D;labelBackgroundColor=#18141D;strokeColor=#e01f1f;" vertex="1" parent="1">
                    <mxGeometry x="110" y="310" width="110" height="20" as="geometry"/>
                </mxCell>
                <mxCell id="cKhhVtKmHP3Dxx20QW97-5" value="&lt;font color=&quot;#e51f1f&quot;&gt;Alreday Registered? Login&lt;/font&gt;" style="rounded=1;whiteSpace=wrap;html=1;fontSize=12;fontColor=#FFFFFF;fillColor=#18141D;labelBackgroundColor=#18141D;strokeColor=#e01f1f;" vertex="1" parent="1">
                    <mxGeometry x="250" y="310" width="160" height="20" as="geometry"/>
                </mxCell>
                <mxCell id="cKhhVtKmHP3Dxx20QW97-6" value="&lt;h1&gt;Heading&lt;/h1&gt;&lt;p&gt;Lorem ipsum dolor sit amet, consectetur adipisicing elit, sed do eiusmod tempor incididunt ut labore et dolore magna aliqua.&lt;/p&gt;" style="text;html=1;strokeColor=none;fillColor=none;spacing=5;spacingTop=-20;whiteSpace=wrap;overflow=hidden;rounded=0;" vertex="1" parent="1">
                    <mxGeometry x="110" y="160" width="190" height="120" as="geometry"/>
                </mxCell>
                <mxCell id="cKhhVtKmHP3Dxx20QW97-7" value="&lt;b&gt;&lt;font style=&quot;font-size: 14px;&quot;&gt;Features&lt;/font&gt;&lt;/b&gt;" style="text;html=1;strokeColor=none;fillColor=none;align=center;verticalAlign=middle;whiteSpace=wrap;rounded=0;" vertex="1" parent="1">
                    <mxGeometry x="380" y="380" width="60" height="30" as="geometry"/>
                </mxCell>
                <mxCell id="cKhhVtKmHP3Dxx20QW97-9" value="" style="whiteSpace=wrap;html=1;aspect=fixed;" vertex="1" parent="1">
                    <mxGeometry x="110" y="430" width="80" height="80" as="geometry"/>
                </mxCell>
                <mxCell id="cKhhVtKmHP3Dxx20QW97-13" value="" style="whiteSpace=wrap;html=1;aspect=fixed;" vertex="1" parent="1">
                    <mxGeometry x="220" y="430" width="80" height="80" as="geometry"/>
                </mxCell>
                <mxCell id="cKhhVtKmHP3Dxx20QW97-14" value="" style="whiteSpace=wrap;html=1;aspect=fixed;" vertex="1" parent="1">
                    <mxGeometry x="330" y="430" width="80" height="80" as="geometry"/>
                </mxCell>
                <mxCell id="cKhhVtKmHP3Dxx20QW97-15" value="" style="whiteSpace=wrap;html=1;aspect=fixed;" vertex="1" parent="1">
                    <mxGeometry x="440" y="430" width="80" height="80" as="geometry"/>
                </mxCell>
                <mxCell id="cKhhVtKmHP3Dxx20QW97-16" value="" style="whiteSpace=wrap;html=1;aspect=fixed;" vertex="1" parent="1">
                    <mxGeometry x="550" y="430" width="80" height="80" as="geometry"/>
                </mxCell>
                <mxCell id="cKhhVtKmHP3Dxx20QW97-17" value="" style="whiteSpace=wrap;html=1;aspect=fixed;" vertex="1" parent="1">
                    <mxGeometry x="660" y="430" width="80" height="80" as="geometry"/>
                </mxCell>
                <mxCell id="cKhhVtKmHP3Dxx20QW97-18" value="&lt;span style=&quot;font-size: 14px;&quot;&gt;&lt;b&gt;Latest Recipes&lt;/b&gt;&lt;/span&gt;" style="text;html=1;strokeColor=none;fillColor=none;align=center;verticalAlign=middle;whiteSpace=wrap;rounded=0;" vertex="1" parent="1">
                    <mxGeometry x="365" y="550" width="120" height="30" as="geometry"/>
                </mxCell>
                <mxCell id="cKhhVtKmHP3Dxx20QW97-20" value="" style="rounded=0;whiteSpace=wrap;html=1;fontSize=14;rotation=90;" vertex="1" parent="1">
                    <mxGeometry x="212.5" y="627.5" width="105" height="65" as="geometry"/>
                </mxCell>
                <mxCell id="cKhhVtKmHP3Dxx20QW97-22" value="" style="rounded=0;whiteSpace=wrap;html=1;fontSize=14;rotation=90;" vertex="1" parent="1">
                    <mxGeometry x="318.75" y="626.25" width="102.5" height="65" as="geometry"/>
                </mxCell>
                <mxCell id="cKhhVtKmHP3Dxx20QW97-23" value="" style="rounded=0;whiteSpace=wrap;html=1;fontSize=14;rotation=90;" vertex="1" parent="1">
                    <mxGeometry x="418.75" y="626.25" width="102.5" height="65" as="geometry"/>
                </mxCell>
                <mxCell id="cKhhVtKmHP3Dxx20QW97-24" value="" style="rounded=0;whiteSpace=wrap;html=1;fontSize=14;rotation=90;" vertex="1" parent="1">
                    <mxGeometry x="525" y="625" width="100" height="65" as="geometry"/>
                </mxCell>
            </root>
        </mxGraphModel>
    </diagram>
    <diagram id="3fhmLgy9oZai8RHG_bn3" name="Dashboard">
        <mxGraphModel dx="797" dy="571" grid="1" gridSize="10" guides="1" tooltips="1" connect="1" arrows="1" fold="1" page="1" pageScale="1" pageWidth="850" pageHeight="1100" math="0" shadow="0">
            <root>
                <mxCell id="0"/>
                <mxCell id="1" parent="0"/>
                <mxCell id="3jZovpwwU1z5eiE3phd0-1" value="" style="rounded=0;whiteSpace=wrap;html=1;labelBorderColor=default;fillColor=#18141D;" vertex="1" parent="1">
                    <mxGeometry x="80" y="40" width="680" height="480" as="geometry"/>
                </mxCell>
                <mxCell id="dCBaG5bIsbDp3Nx7WNOk-1" value="" style="rounded=0;whiteSpace=wrap;html=1;strokeColor=#FFFFFF;fontSize=14;fillColor=#18141D;" vertex="1" parent="1">
                    <mxGeometry x="80" y="40" width="680" height="60" as="geometry"/>
                </mxCell>
                <mxCell id="svwUEoBh3Kjieb9l7Nis-1" value="&lt;a style=&quot;color: var(--bs-navbar-brand-color); box-sizing: border-box; text-decoration-line: none; padding-top: var(--bs-navbar-brand-padding-y); padding-bottom: var(--bs-navbar-brand-padding-y); margin-right: var(--bs-navbar-brand-margin-end); font-size: 30px; font-weight: 800; background-image: linear-gradient(to right, rgb(225, 142, 161), rgb(150, 22, 0)); background-position: initial; background-size: initial; background-repeat: initial; background-attachment: initial; background-origin: initial; background-clip: text; -webkit-text-fill-color: transparent; font-family: system-ui, -apple-system, &amp;quot;Segoe UI&amp;quot;, Roboto, &amp;quot;Helvetica Neue&amp;quot;, &amp;quot;Noto Sans&amp;quot;, &amp;quot;Liberation Sans&amp;quot;, Arial, sans-serif, &amp;quot;Apple Color Emoji&amp;quot;, &amp;quot;Segoe UI Emoji&amp;quot;, &amp;quot;Segoe UI Symbol&amp;quot;, &amp;quot;Noto Color Emoji&amp;quot;; text-align: start;&quot; href=&quot;http://localhost/AI_PHP_Recipe_Tracker_new/index.php&quot; class=&quot;navbar-brand&quot;&gt;Bon Appétit&lt;/a&gt;" style="text;html=1;strokeColor=none;fillColor=none;align=center;verticalAlign=middle;whiteSpace=wrap;rounded=0;labelBackgroundColor=#18141D;labelBorderColor=default;fontSize=12;fontColor=#333333;" vertex="1" parent="1">
                    <mxGeometry x="90" y="55" width="190" height="30" as="geometry"/>
                </mxCell>
                <mxCell id="v2as6uPeXeZ_ON0txJ1Q-1" value="&lt;font color=&quot;#e51f1f&quot;&gt;Logout&lt;/font&gt;" style="rounded=1;whiteSpace=wrap;html=1;fontSize=12;fontColor=#FFFFFF;fillColor=#18141D;labelBackgroundColor=#18141D;strokeColor=#e01f1f;" vertex="1" parent="1">
                    <mxGeometry x="680" y="55" width="60" height="20" as="geometry"/>
                </mxCell>
                <mxCell id="cA-I374AfyNGf27HgkN_-1" value="Culinary Delights Await: Dive into Bon Appétit" style="text;html=1;strokeColor=none;fillColor=none;align=center;verticalAlign=middle;whiteSpace=wrap;rounded=0;fontSize=14;" vertex="1" parent="1">
                    <mxGeometry x="320" y="170" width="190" height="30" as="geometry"/>
                </mxCell>
                <mxCell id="cA-I374AfyNGf27HgkN_-3" value="" style="rounded=1;whiteSpace=wrap;html=1;strokeColor=#FFFFFF;fontSize=14;fillColor=#18141D;rotation=90;" vertex="1" parent="1">
                    <mxGeometry x="190" y="280" width="155" height="115" as="geometry"/>
                </mxCell>
                <mxCell id="cA-I374AfyNGf27HgkN_-4" value="" style="rounded=1;whiteSpace=wrap;html=1;strokeColor=#FFFFFF;fontSize=14;fillColor=#18141D;rotation=90;" vertex="1" parent="1">
                    <mxGeometry x="355" y="280" width="155" height="115" as="geometry"/>
                </mxCell>
                <mxCell id="cA-I374AfyNGf27HgkN_-5" value="" style="rounded=1;whiteSpace=wrap;html=1;strokeColor=#FFFFFF;fontSize=14;fillColor=#18141D;rotation=90;" vertex="1" parent="1">
                    <mxGeometry x="510" y="280" width="155" height="115" as="geometry"/>
                </mxCell>
                <mxCell id="cA-I374AfyNGf27HgkN_-6" value="My Recipe" style="text;html=1;strokeColor=none;fillColor=none;align=center;verticalAlign=middle;whiteSpace=wrap;rounded=0;fontSize=14;" vertex="1" parent="1">
                    <mxGeometry x="392.5" y="370" width="80" height="30" as="geometry"/>
                </mxCell>
                <mxCell id="cA-I374AfyNGf27HgkN_-7" value="Add Recipe" style="text;html=1;strokeColor=none;fillColor=none;align=center;verticalAlign=middle;whiteSpace=wrap;rounded=0;fontSize=14;" vertex="1" parent="1">
                    <mxGeometry x="227.5" y="370" width="80" height="30" as="geometry"/>
                </mxCell>
                <mxCell id="cA-I374AfyNGf27HgkN_-8" value="Quick Recipe" style="text;html=1;strokeColor=none;fillColor=none;align=center;verticalAlign=middle;whiteSpace=wrap;rounded=0;fontSize=14;" vertex="1" parent="1">
                    <mxGeometry x="541.25" y="370" width="92.5" height="30" as="geometry"/>
                </mxCell>
                <mxCell id="cA-I374AfyNGf27HgkN_-9" value="" style="whiteSpace=wrap;html=1;aspect=fixed;strokeColor=#FFFFFF;fontSize=14;fillColor=#18141D;" vertex="1" parent="1">
                    <mxGeometry x="242.5" y="290" width="50" height="50" as="geometry"/>
                </mxCell>
                <mxCell id="cA-I374AfyNGf27HgkN_-10" value="" style="whiteSpace=wrap;html=1;aspect=fixed;strokeColor=#FFFFFF;fontSize=14;fillColor=#18141D;" vertex="1" parent="1">
                    <mxGeometry x="407.5" y="290" width="50" height="50" as="geometry"/>
                </mxCell>
                <mxCell id="cA-I374AfyNGf27HgkN_-11" value="" style="whiteSpace=wrap;html=1;aspect=fixed;strokeColor=#FFFFFF;fontSize=14;fillColor=#18141D;" vertex="1" parent="1">
                    <mxGeometry x="562.5" y="290" width="50" height="50" as="geometry"/>
                </mxCell>
                <mxCell id="h0QRVKEDR1dquCwCwNzp-1" value="&lt;font style=&quot;font-size: 12px;&quot; color=&quot;#ffffff&quot;&gt;Home&lt;/font&gt;" style="text;html=1;strokeColor=none;fillColor=none;align=center;verticalAlign=middle;whiteSpace=wrap;rounded=0;fontSize=16;fontColor=#6A78F7;" vertex="1" parent="1">
                    <mxGeometry x="285" y="55" width="60" height="30" as="geometry"/>
                </mxCell>
            </root>
        </mxGraphModel>
    </diagram>
</mxfile>